HIERARCHY
ROOT hips
{
  OFFSET 0 10.6860622 2.3727825e-15
  CHANNELS 6 Xposition Yposition Zposition Yrotation Xrotation Zrotation
  JOINT leftUpperLeg
  {
    OFFSET 0.6642549969 -0.9402397400000004 0
    CHANNELS 3 Yrotation Xrotation Zrotation
    JOINT leftLowerLeg
    {
      OFFSET 0 -3.997221335632195 0
      CHANNELS 3 Yrotation Xrotation Zrotation
      JOINT leftFoot
      {
        OFFSET -0.13777839790000004 -4.6145792000000005 -0.22186036399999998
        CHANNELS 3 Yrotation Xrotation Zrotation
        JOINT leftToes
        {
          OFFSET -0.03777410834999995 -0.9130806927000008 0.85230013
          CHANNELS 3 Yrotation Xrotation Zrotation
          End Site
          {
            OFFSET -0.03777410834999995 -0.9130806927000008 0.85230013
          }
        }
      }
    }
  }
  JOINT rightUpperLeg
  {
    OFFSET -0.6642778626 -0.9402397400000004 0
    CHANNELS 3 Yrotation Xrotation Zrotation
    JOINT rightLowerLeg
    {
      OFFSET 0 -3.997221452859387 0
      CHANNELS 3 Yrotation Xrotation Zrotation
      JOINT rightFoot
      {
        OFFSET 0.1377926176 -4.6145792000000005 -0.22185782299999995
        CHANNELS 3 Yrotation Xrotation Zrotation
        JOINT rightToes
        {
          OFFSET 0.037780746850000047 -0.9130806927000008 0.85230167
          CHANNELS 3 Yrotation Xrotation Zrotation
          End Site
          {
            OFFSET 0.037780746850000047 -0.9130806927000008 0.85230167
          }
        }
      }
    }
  }
  JOINT spine
  {
    OFFSET 0 0.13988381660000015 0
    CHANNELS 3 Yrotation Xrotation Zrotation
    JOINT chest
    {
      OFFSET 0 0.6191039003973773 0
      CHANNELS 3 Yrotation Xrotation Zrotation
      JOINT upperChest
      {
        OFFSET 0 0.9855186130586943 0
        CHANNELS 3 Yrotation Xrotation Zrotation
        JOINT leftShoulder
        {
          OFFSET 0.1807663869 1.5087829790000005 0
          CHANNELS 3 Yrotation Xrotation Zrotation
          JOINT leftUpperArm
          {
            OFFSET 0.5985063006419806 0 0
            CHANNELS 3 Yrotation Xrotation Zrotation
            JOINT leftLowerArm
            {
              OFFSET 2.2993332369501065 0 0
              CHANNELS 3 Yrotation Xrotation Zrotation
              JOINT leftHand
              {
                OFFSET 2.395047042602395 0 0
                CHANNELS 3 Yrotation Xrotation Zrotation
                JOINT leftIndexProximal
                {
                  OFFSET 0.5766295810000004 0.04556643899499946 0.17265095988184
                  CHANNELS 3 Yrotation Xrotation Zrotation
                  JOINT leftIndexIntermediate
                  {
                    OFFSET 0.2957229000000008 -0.019352197700001517 -0.007932640616999987
                    CHANNELS 3 Yrotation Xrotation Zrotation
                    JOINT leftIndexDistal
                    {
                      OFFSET 0.19008243099999922 -0.012484908149998475 -0.002786250786000012
                      CHANNELS 3 Yrotation Xrotation Zrotation
                      End Site
                      {
                        OFFSET 0.19008243099999922 -0.012484908149998475 -0.002786250786000012
                      }
                    }
                  }
                }
                JOINT leftMiddleProximal
                {
                  OFFSET 0.5834975091000001 0.0524350405149987 0.02204081888183999
                  CHANNELS 3 Yrotation Xrotation Zrotation
                  JOINT leftMiddleIntermediate
                  {
                    OFFSET 0.33880573540000003 -0.019871473270000717 -0.00000971183179999946
                    CHANNELS 3 Yrotation Xrotation Zrotation
                    JOINT leftMiddleDistal
                    {
                      OFFSET 0.20676022730000088 -0.012221336379999448 0.0001471936708000235
                      CHANNELS 3 Yrotation Xrotation Zrotation
                      End Site
                      {
                        OFFSET 0.20676022730000088 -0.012221336379999448 0.0001471936708000235
                      }
                    }
                  }
                }
                JOINT leftLittleProximal
                {
                  OFFSET 0.5344154683999995 -0.012880921405001189 -0.24414037221816004
                  CHANNELS 3 Yrotation Xrotation Zrotation
                  JOINT leftLittleIntermediate
                  {
                    OFFSET 0.21758961730000093 -0.011650919939999227 0.011893592810000034
                    CHANNELS 3 Yrotation Xrotation Zrotation
                    JOINT leftLittleDistal
                    {
                      OFFSET 0.1475273964999999 -0.008152365682999818 0.006001092492999946
                      CHANNELS 3 Yrotation Xrotation Zrotation
                      End Site
                      {
                        OFFSET 0.1475273964999999 -0.008152365682999818 0.006001092492999946
                      }
                    }
                  }
                }
                JOINT leftRingProximal
                {
                  OFFSET 0.5799399463000003 0.026911854694997794 -0.12150566991816003
                  CHANNELS 3 Yrotation Xrotation Zrotation
                  JOINT leftRingIntermediate
                  {
                    OFFSET 0.26167887460000006 -0.013480186499999602 0.010996293000000053
                    CHANNELS 3 Yrotation Xrotation Zrotation
                    JOINT leftRingDistal
                    {
                      OFFSET 0.17667108799999987 -0.008990287899999228 0.0055541023999999065
                      CHANNELS 3 Yrotation Xrotation Zrotation
                      End Site
                      {
                        OFFSET 0.17667108799999987 -0.008990287899999228 0.0055541023999999065
                      }
                    }
                  }
                }
                JOINT leftThumbProximal
                {
                  OFFSET 0.11018806699999972 -0.09448718900500053 0.17047963138184
                  CHANNELS 3 Yrotation Xrotation Zrotation
                  JOINT leftThumbIntermediate
                  {
                    OFFSET 0.31062601459999983 -0.08126270900000132 0.15443142000000007
                    CHANNELS 3 Yrotation Xrotation Zrotation
                    JOINT leftThumbDistal
                    {
                      OFFSET 0.21627175790000086 -0.08833193599999878 0.018771167799999988
                      CHANNELS 3 Yrotation Xrotation Zrotation
                      End Site
                      {
                        OFFSET 0.21627175790000086 -0.08833193599999878 0.018771167799999988
                      }
                    }
                  }
                }
              }
            }
          }
        }
        JOINT neck
        {
          OFFSET 0 1.5463305265074576 0
          CHANNELS 3 Yrotation Xrotation Zrotation
          JOINT head
          {
            OFFSET 0 0.8456443600000344 0
            CHANNELS 3 Yrotation Xrotation Zrotation
            JOINT leftEye
            {
              OFFSET 0.30408573140000006 0.5104519199999995 0.1276382305
              CHANNELS 3 Yrotation Xrotation Zrotation
              End Site
              {
                OFFSET 0.30408573140000006 0.5104519199999995 0.1276382305
              }
            }
            JOINT rightEye
            {
              OFFSET -0.30409491089999996 0.5104519199999995 0.1276379445
              CHANNELS 3 Yrotation Xrotation Zrotation
              End Site
              {
                OFFSET -0.30409491089999996 0.5104519199999995 0.1276379445
              }
            }
            JOINT jaw
            {
              OFFSET -3.155239131000001e-7 -0.11984121820000082 0.60178107
              CHANNELS 3 Yrotation Xrotation Zrotation
              End Site
              {
                OFFSET -3.155239131000001e-7 -0.11984121820000082 0.60178107
              }
            }
          }
        }
        JOINT rightShoulder
        {
          OFFSET -0.1807303465 1.5087829790000005 0
          CHANNELS 3 Yrotation Xrotation Zrotation
          JOINT rightUpperArm
          {
            OFFSET -0.5985063796536958 0 0
            CHANNELS 3 Yrotation Xrotation Zrotation
            JOINT rightLowerArm
            {
              OFFSET -2.2993322059002854 0 0
              CHANNELS 3 Yrotation Xrotation Zrotation
              JOINT rightHand
              {
                OFFSET -2.395045314457259 0 0
                CHANNELS 3 Yrotation Xrotation Zrotation
                JOINT rightIndexProximal
                {
                  OFFSET -0.5764487688300002 0.0441371204405987 0.17361932004999997
                  CHANNELS 3 Yrotation Xrotation Zrotation
                  JOINT rightIndexIntermediate
                  {
                    OFFSET -0.29573011380000047 -0.01934826376999843 -0.007698921482999974
                    CHANNELS 3 Yrotation Xrotation Zrotation
                    JOINT rightIndexDistal
                    {
                      OFFSET -0.19008373999999884 -0.012503266380000655 -0.0026365778999999897
                      CHANNELS 3 Yrotation Xrotation Zrotation
                      End Site
                      {
                        OFFSET -0.19008373999999884 -0.012503266380000655 -0.0026365778999999897
                      }
                    }
                  }
                }
                JOINT rightMiddleProximal
                {
                  OFFSET -0.5834852037300005 0.05211639405060153 0.02307162440000001
                  CHANNELS 3 Yrotation Xrotation Zrotation
                  JOINT rightMiddleIntermediate
                  {
                    OFFSET -0.33880114510000003 -0.019952774050000954 0.0002455003561999819
                    CHANNELS 3 Yrotation Xrotation Zrotation
                    JOINT rightMiddleDistal
                    {
                      OFFSET -0.20675694929999955 -0.012273788999999091 0.00030209124000002766
                      CHANNELS 3 Yrotation Xrotation Zrotation
                      End Site
                      {
                        OFFSET -0.20675694929999955 -0.012273788999999091 0.00030209124000002766
                      }
                    }
                  }
                }
                JOINT rightLittleProximal
                {
                  OFFSET -0.5346811737299992 -0.011214256288399227 -0.24363941305000003
                  CHANNELS 3 Yrotation Xrotation Zrotation
                  JOINT rightLittleIntermediate
                  {
                    OFFSET -0.21757715980000092 -0.011771559690000988 0.01201554387
                    CHANNELS 3 Yrotation Xrotation Zrotation
                    JOINT rightLittleDistal
                    {
                      OFFSET -0.1475201849000004 -0.00822055339600003 0.006082065407000015
                      CHANNELS 3 Yrotation Xrotation Zrotation
                      End Site
                      {
                        OFFSET -0.1475201849000004 -0.00822055339600003 0.006082065407000015
                      }
                    }
                  }
                }
                JOINT rightRingProximal
                {
                  OFFSET -0.5800810755299999 0.027657985680600072 -0.12066365025000003
                  CHANNELS 3 Yrotation Xrotation Zrotation
                  JOINT rightRingIntermediate
                  {
                    OFFSET -0.26166445029999974 -0.013623118409999302 0.011164098990000045
                    CHANNELS 3 Yrotation Xrotation Zrotation
                    JOINT rightRingDistal
                    {
                      OFFSET -0.17666387530000027 -0.009072900100000503 0.005668185599999959
                      CHANNELS 3 Yrotation Xrotation Zrotation
                      End Site
                      {
                        OFFSET -0.17666387530000027 -0.009072900100000503 0.005668185599999959
                      }
                    }
                  }
                }
                JOINT rightThumbProximal
                {
                  OFFSET -0.10997596379000074 -0.09577489355940072 0.16989765924999997
                  CHANNELS 3 Yrotation Xrotation Zrotation
                  JOINT rightThumbIntermediate
                  {
                    OFFSET -0.31036620999999986 -0.08229339117999834 0.15440884469999996
                    CHANNELS 3 Yrotation Xrotation Zrotation
                    JOINT rightThumbDistal
                    {
                      OFFSET -0.21631306399999906 -0.08825326400000111 0.018656797720000014
                      CHANNELS 3 Yrotation Xrotation Zrotation
                      End Site
                      {
                        OFFSET -0.21631306399999906 -0.08825326400000111 0.018656797720000014
                      }
                    }
                  }
                }
              }
            }
          }
        }
      }
    }
  }
}
MOTION
Frames: 5
Frame Time: 0.03333333333333333
0.10238333134285779 0.25072293451691324 2.8670180417998736 -180 -8.397548913673061 -1.0358308434897563e-15 0.01826153742925018 10.445060507774608 -4.763444434042713 0.591014957136477 1.760997130236897 2.3020021125633554 0.8341298726211719 6.437553505604269 7.522305257918294 0 0 0 -179.08188188761022 -21.962064401205453 -175.80539100515819 -1.2358106008070102 17.322643258535418 -5.889446503611352 -0.49075040661966296 1.011090908525344 -4.327157216739375 0 0 0 -0.7133702472214307 1.2948124790692692 -1.2887771485533592 -0.5655582038745663 19.902419867086095 -1.47711133683914 0 0 0 -21.661753760619522 -23.85790000143639 -6.926844701878282 -47.73283043091417 -24.29556061521525 2.8839283141063725 -58.833543627388465 -16.821657238835485 -28.75373832718297 17.954457119034203 -11.104248947228802 -27.77512952373975 0 0 0 0 0 0 0 0 0 0 0 0 0 0 0 0 0 0 0 0 0 0 0 0 0 0 0 0 0 0 0 0 0 0 0 0 0 0 0 0 0 0 0 0 0 -0.9396745808763867 -13.037119316241423 24.21410070133793 -27.709252209977166 -7.632773426721478 16.403560312304037 0 0 0 0 0 0 0 0 0 0.44398130486460724 -2.710782889983312 1.7653973763085666 18.060857646280958 -24.004310256634394 65.77318264941273 22.19048606157129 -2.816292227093338 20.338839212000085 2.8437965623643695 0.8152056725470903 -0.20834369015997545 0 0 0 0 0 0 0 0 0 0 0 0 0 0 0 0 0 0 0 0 0 0 0 0 0 0 0 0 0 0 0 0 0 0 0 0 0 0 0 0 0 0 0 0 0
0.10238333134285779 0.25072293451691324 2.8761278122725447 -180 -7.795464743946381 -9.606038329349725e-16 0.04066461598487359 9.646480235158894 -4.798551868599827 0.591152595154671 2.0233528691359908 2.3738640133254063 0.8302390821459994 6.244336758642849 7.500371463767106 0 0 0 -179.1054402574869 -21.684711486154256 -175.842535622453 -1.1926296464974544 16.74461108100357 -5.756297855964936 -0.48767178983945025 1.2645952287748097 -4.392996175571265 0 0 0 -0.7133009908623027 1.069716512533378 -1.28595372393465 -0.5638422175684805 19.42643642982221 -1.4721601001974087 0 0 0 -21.400780492396628 -23.71642574873035 -7.117706728001913 -47.71206557919129 -24.295504411099206 2.8806064349542067 -59.10711248860028 -16.965828259308466 -28.826661265854376 18.13194122826344 -11.084660144085664 -27.6765152490737 0 0 0 0 0 0 0 0 0 0 0 0 0 0 0 0 0 0 0 0 0 0 0 0 0 0 0 0 0 0 0 0 0 0 0 0 0 0 0 0 0 0 0 0 0 -0.9424812584455676 -13.759000557295938 24.226292862245796 -27.73770282570184 -8.026404888225393 16.612384518029028 0 0 0 0 0 0 0 0 0 0.38620661184125604 -2.4805084804421305 1.7642643173386894 18.060857646280958 -24.004310256634394 65.77318264941273 22.284444852285983 -2.8477616983826084 20.420960109904446 2.9123668519808654 0.8907504988146017 -0.2840598960796228 0 0 0 0 0 0 0 0 0 0 0 0 0 0 0 0 0 0 0 0 0 0 0 0 0 0 0 0 0 0 0 0 0 0 0 0 0 0 0 0 0 0 0 0 0
0.10238333134285779 0.25072293451691324 2.88068269750888 -180 -7.494455595490024 -9.2307658441876e-16 0.052030187647186206 9.247274348383533 -4.81619017002421 0.5913452196134509 2.154527622020261 2.4097982046837605 0.8283225883083157 6.147728847523584 7.489412068563573 0 0 0 -179.11727428087738 -21.54605094100107 -175.8611275144728 -1.1716159726576805 16.45559237663952 -5.690052297253209 -0.4862410984372432 1.3913460624369225 -4.425912865458854 0 0 0 -0.7132710248609462 0.9571704553759199 -1.2845422474899955 -0.5630027214389082 19.18846181325839 -1.4696954762242456 0 0 0 -21.270599076339884 -23.645393889327373 -7.212794209607516 -47.70168605735029 -24.295478182520238 2.8789462695053745 -59.24389234287864 -17.03803024021626 -28.86286998153432 18.220692883795802 -11.074977156525009 -27.627193772861542 0 0 0 0 0 0 0 0 0 0 0 0 0 0 0 0 0 0 0 0 0 0 0 0 0 0 0 0 0 0 0 0 0 0 0 0 0 0 0 0 0 0 0 0 0 -0.9439453162867274 -14.119596481637032 24.232408470482092 -27.752480822533357 -8.223109774074278 16.716910045700445 0 0 0 0 0 0 0 0 0 0.35732134463587595 -2.36537297613434 1.7636105615425637 18.060857646280958 -24.004310256634394 65.77318264941273 22.33140512023578 -2.8635460160759205 20.4620006987447 2.9466148338888947 0.9285565191983758 -0.32188402577431524 0 0 0 0 0 0 0 0 0 0 0 0 0 0 0 0 0 0 0 0 0 0 0 0 0 0 0 0 0 0 0 0 0 0 0 0 0 0 0 0 0 0 0 0 0
0.10238333134285779 0.25072293451691324 2.8852375827452152 -180 -7.193446951114067 -8.856012532119938e-16 0.06350752716517041 8.848072364518135 -4.833889361365309 0.591620209609605 2.2857019254406654 2.4457356620504473 0.8264249519412733 6.051121307601787 7.478459008975277 0 0 0 -179.12914544130518 -21.407394380089222 -175.87973246092355 -1.1509812152591072 16.166548528908333 -5.624015076212748 -0.48488317155166233 1.518097621673276 -4.45882819206272 0 0 0 -0.7132437711198278 0.8446244627294969 -1.2831308555098633 -0.5621752219559645 18.950485849929777 -1.4672380749432024 0 0 0 -21.140618244526525 -23.57416396006059 -7.307653837483121 -47.6913065396825 -24.29545008047735 2.8772863385420613 -59.380678135249326 -17.110317287176507 -28.8989090982491 18.309449119234248 -11.065369304694627 -27.57785637196055 0 0 0 0 0 0 0 0 0 0 0 0 0 0 0 0 0 0 0 0 0 0 0 0 0 0 0 0 0 0 0 0 0 0 0 0 0 0 0 0 0 0 0 0 0 -0.9454515480430817 -14.480192793957604 24.23854542781077 -27.767627236734217 -8.419787155531374 16.821537616090023 0 0 0 0 0 0 0 0 0 0.32843709323666137 -2.250237629250746 1.762898840408724 18.060857646280958 -24.004310256634394 65.77318264941273 22.378355671613726 -2.879363890540841 20.503027547787152 2.980838329466114 0.9663850384402073 -0.3596859302695556 0 0 0 0 0 0 0 0 0 0 0 0 0 0 0 0 0 0 0 0 0 0 0 0 0 0 0 0 0 0 0 0 0 0 0 0 0 0 0 0 0 0 0 0 0
0.10238333134285779 0.25072293451691324 2.8943473532178863 -180 -6.5915281942754955 -8.108095630719927e-16 0.0867945473480259 8.049909688796376 -4.869464941795928 0.5924172880331843 2.5480418923984036 2.517623264003112 0.8226853295984714 5.857905384114776 7.45656416417994 0 0 0 -179.1529983348699 -21.130102738869805 -175.91698002289465 -1.110842016258337 15.588478834367985 -5.4925666828831075 -0.48238659224060143 1.771595255590944 -4.524652534440125 0 0 0 -0.7131965127893785 0.6195354166024104 -1.280308458832564 -0.5605555008232626 18.47458194893509 -1.4623450349041025 0 0 0 -20.881254095520873 -23.431112601979777 -7.496679633815844 -47.67055305970064 -24.295399496815847 2.8739646533281693 -59.65426478835757 -17.255127768576102 -28.97049637904023 18.48697868500702 -11.046378977635625 -27.479144495135426 0 0 0 0 0 0 0 0 0 0 0 0 0 0 0 0 0 0 0 0 0 0 0 0 0 0 0 0 0 0 0 0 0 0 0 0 0 0 0 0 0 0 0 0 0 -0.9485871832805983 -15.20062821570807 24.250856795767657 -27.7990181720378 -8.812903499129433 17.031033737268874 0 0 0 0 0 0 0 0 0 0.27067256689367847 -2.0199766541920168 1.7613022743769184 18.060857646280958 -24.004310256634394 65.77318264941273 22.472221768415636 -2.911099465325848 20.58504418368497 3.049211662423079 1.0421091087691479 -0.4352238435684525 0 0 0 0 0 0 0 0 0 0 0 0 0 0 0 0 0 0 0 0 0 0 0 0 0 0 0 0 0 0 0 0 0 0 0 0 0 0 0 0 0 0 0 0 0
